<?xml version="1.0" encoding="UTF-8"?>
<svg width="512" height="512" viewBox="0 0 512 512" fill="none" xmlns="http://www.w3.org/2000/svg">
  <rect width="512" height="512" rx="128" fill="#4CAF50"/>
  <g transform="translate(96, 96) scale(0.625)">
    <!-- Bone shape -->
    <path d="M448 64c-33.6 0-61.3 25.4-64 58-1.8 21.2 7.5 40.9 24 53.5-7.5 8.4-12 19.5-12 31.5 0 26.5 21.5 48 48 48 13.5 0 25.6-5.6 34.2-14.5 11.4 15.4 29.7 25.5 50.3 25.5 34.4 0 62.4-27.5 63.9-61.5 0.9-19.5-7.4-37.1-21.3-49 5.4-9.4 8.5-20.3 8.5-32 0-35.3-28.7-64-64-64-15.7 0-30.1 5.7-41.2 15.1C463.9 67.2 456.3 64 448 64zM64 448c33.6 0 61.3-25.4 64-58 1.8-21.2-7.5-40.9-24-53.5 7.5-8.4 12-19.5 12-31.5 0-26.5-21.5-48-48-48-13.5 0-25.6 5.6-34.2 14.5C22.4 256.1 4.1 246 -16.5 246c-34.4 0-62.4 27.5-63.9 61.5-0.9 19.5 7.4 37.1 21.3 49-5.4 9.4-8.5 20.3-8.5 32 0 35.3 28.7 64 64 64 15.7 0 30.1-5.7 41.2-15.1C48.1 444.8 55.7 448 64 448z" fill="white"/>
    
    <!-- Medical cross -->
    <rect x="192" y="128" width="128" height="256" rx="16" fill="white"/>
    <rect x="128" y="192" width="256" height="128" rx="16" fill="white"/>
  </g>
</svg>
